<svg xmlns="http://www.w3.org/2000/svg" width="64" height="35" viewBox="0 0 64 35"><g><g opacity=".46"><path fill="#d91f1f" d="M34.274 34.067l28.76-28.579a3.204 3.204 0 0 0 0-4.543 3.239 3.239 0 0 0-4.564 0L31.992 27.257 5.515.949a3.242 3.242 0 0 0-4.567 0 3.204 3.204 0 0 0 0 4.542l28.76 28.579c1.246 1.235 3.323 1.235 4.566-.003z"/><path fill="#d91f1f" d="M34.274 34.067l28.76-28.579a3.204 3.204 0 0 0 0-4.543 3.239 3.239 0 0 0-4.564 0L31.992 27.257 5.515.949a3.242 3.242 0 0 0-4.567 0 3.204 3.204 0 0 0 0 4.542l28.76 28.579c1.246 1.235 3.323 1.235 4.566-.003z"/></g></g></svg>