<svg width="48" height="48" viewBox="0 0 48 48" fill="none" xmlns="http://www.w3.org/2000/svg">
<path d="M24.5 20C26.9851 20 29 22.0146 29 24.5C29 26.9851 26.9851 29 24.5 29C22.0146 29 20 26.9851 20 24.5C20 22.0146 22.0146 20 24.5 20Z" fill="white"/>
<path fill-rule="evenodd" clip-rule="evenodd" d="M23.3452 14.0032C23.5681 14.0029 23.808 14.003 24.0668 14.0031L24.4934 14.0032C27.9111 14.0032 28.3161 14.0155 29.6658 14.0768C30.9138 14.1339 31.5911 14.3424 32.0423 14.5176C32.6397 14.7496 33.0655 15.0269 33.5133 15.4749C33.9613 15.923 34.2386 16.3496 34.4711 16.947C34.6463 17.3976 34.8552 18.075 34.912 19.323C34.9733 20.6723 34.9866 21.0777 34.9866 24.4937C34.9866 27.9097 34.9733 28.3151 34.912 29.6644C34.8549 30.9124 34.6463 31.5898 34.4711 32.0405C34.2391 32.6378 33.9613 33.0631 33.5133 33.5109C33.0653 33.9589 32.6399 34.2362 32.0423 34.4682C31.5917 34.6442 30.9138 34.8522 29.6658 34.9093C28.3164 34.9706 27.9111 34.984 24.4934 34.984C21.0755 34.984 20.6705 34.9706 19.3211 34.9093C18.0731 34.8517 17.3958 34.6431 16.9443 34.4679C16.347 34.2359 15.9203 33.9586 15.4723 33.5106C15.0243 33.0626 14.7469 32.637 14.5144 32.0394C14.3392 31.5887 14.1304 30.9114 14.0736 29.6634C14.0123 28.314 14 27.9087 14 24.4905C14 21.0723 14.0123 20.6691 14.0736 19.3198C14.1307 18.0718 14.3392 17.3944 14.5144 16.9432C14.7464 16.3459 15.0243 15.9192 15.4723 15.4712C15.9203 15.0232 16.347 14.7459 16.9443 14.5133C17.3955 14.3373 18.0731 14.1293 19.3211 14.072C20.5019 14.0187 20.9595 14.0027 23.3452 14V14.0032ZM31.326 16.1286C30.478 16.1286 29.79 16.8158 29.79 17.664C29.79 18.512 30.478 19.2001 31.326 19.2001C32.1741 19.2001 32.8621 18.512 32.8621 17.664C32.8621 16.816 32.1741 16.128 31.326 16.128V16.1286ZM17.92 24.4966C17.92 20.8666 20.8631 17.9234 24.4932 17.9232C28.1233 17.9232 31.0658 20.8665 31.0658 24.4966C31.0658 28.1268 28.1236 31.0687 24.4934 31.0687C20.8633 31.0687 17.92 28.1268 17.92 24.4966Z" fill="white"/>
</svg>
